<?xml version="1.0" encoding="utf-8"?>
<!-- Generator: Adobe Illustrator 27.5.0, SVG Export Plug-In . SVG Version: 6.00 Build 0)  -->
<svg version="1.1" xmlns="http://www.w3.org/2000/svg" xmlns:xlink="http://www.w3.org/1999/xlink" x="0px" y="0px"
	 viewBox="0 0 800 500" style="enable-background:new 0 0 800 500;" xml:space="preserve">
<g id="_x31_15">
	<g>
		<rect style="fill:#FFFFFF;" width="800" height="500"/>
		<g>
			<path style="fill:#2954C8;" d="M0,111.949l22.2,11.2c48.505,24.361,98.444,46.483,150.844,61.059
				c56.472,15.709,114.157,20.225,172.575,17.234c57.072-2.921,116.368-8.245,170.519-27.6
				c51.345-18.351,96.236-56.154,150.662-65.693c44.5-7.9,88.9,8.5,111,16.6l22.2,8.201v255c-167.715,0-335.43,0-503.145,0
				c-83.857,0-167.715,0-251.572,0c-4.08,0-45.283,0.225-45.283-0.271c0-2.338,0-4.675,0-7.012c0-11.791,0-23.582,0-35.373
				C0,267.512,0,189.73,0,111.949z"/>
			<path style="fill:#77A2EB;" d="M0,229.949l22.2-5.8c37.497-10.012,76.622-17.159,115.45-11.394
				c44.686,6.634,85.531,27.711,129.149,38.494c48.55,12.001,98.718,9.719,146.952-2.571
				c49.082-12.505,96.572-31.648,148.067-30.066c51.252,1.575,101.802,16.428,151.609,27.402
				c28.847,6.356,57.699,12.692,86.571,18.935v123c-266.666,0-533.334,0-800,0V229.949z"/>
			<path style="fill:#BCD4F7;" d="M0,291.949l22.2-5.5c22.1-5.5,66.5-16.5,111-22.301c44.5-5.9,89.1-6.5,133.6,0.6
				c44.5,7.201,88.9,22.201,133.2,31.5c65.272,13.851,129.356,12.084,195.227,4.475c33.609-3.883,67.117-6.977,100.981-5.172
				c27.396,1.461,54.538,5.291,81.592,9.697l22.2,3.701v96c-266.666,0-533.334,0-800,0V291.949z"/>
			<path style="fill:#FFFFFF;" d="M0,326.949l22.2,5c22.1,5,66.5,15,111,15.699c44.5,0.6,89.1-8,133.6-10
				c49.434-2.221,98.712,3.662,147.971,6.806c51,3.255,102.026,3.849,153.058,0.958c77.594-4.398,154.445-7.514,232.172-6.463v68
				c-266.666,0-533.334,0-800,0V326.949z"/>
		</g>
	</g>
</g>
<g id="Layer_1">
</g>
</svg>
